<?xml version="1.0" encoding="UTF-8"?>
<svg width="202px" height="202px" viewBox="0 0 202 202" version="1.1" xmlns="http://www.w3.org/2000/svg" xmlns:xlink="http://www.w3.org/1999/xlink">
    <title>Group 3</title>
    <g id="Page-1" stroke="none" stroke-width="1" fill="none" fill-rule="evenodd">
        <g id="Group-3">
            <g id="Group-5" transform="translate(72.300000, 72.300000) rotate(-180.000000) translate(-72.300000, -72.300000) translate(0.800000, 0.800000)" fill="#272C30">
                <path d="M107.608083,141.031805 L141.031917,141.031805 L141.031917,107.608195 L107.608083,107.608195 L107.608083,141.031805 Z M105.84,142.8 L142.8,142.8 L142.8,105.84 L105.84,105.84 L105.84,142.8 Z" id="Fill-217"></path>
                <path d="M72.3283082,105.751917 L105.751692,105.751917 L105.751692,72.3280827 L72.3283082,72.3280827 L72.3283082,105.751917 Z M70.56,107.52 L107.52,107.52 L107.52,70.56 L70.56,70.56 L70.56,107.52 Z" id="Fill-218"></path>
                <path d="M72.3283082,70.4716918 L105.751692,70.4716918 L105.751692,37.0483082 L72.3283082,37.0483082 L72.3283082,70.4716918 Z M70.56,72.24 L107.52,72.24 L107.52,35.28 L70.56,35.28 L70.56,72.24 Z" id="Fill-219"></path>
                <path d="M37.0481954,105.751917 L70.4718046,105.751917 L70.4718046,72.3280827 L37.0481954,72.3280827 L37.0481954,105.751917 Z M35.28,107.52 L72.24,107.52 L72.24,70.56 L35.28,70.56 L35.28,107.52 Z" id="Fill-220"></path>
                <path d="M107.608083,105.751917 L141.031917,105.751917 L141.031917,72.3280827 L107.608083,72.3280827 L107.608083,105.751917 Z M105.84,107.52 L142.8,107.52 L142.8,70.56 L105.84,70.56 L105.84,107.52 Z" id="Fill-221"></path>
                <path d="M107.608083,70.4716918 L141.031917,70.4716918 L141.031917,37.0483082 L107.608083,37.0483082 L107.608083,70.4716918 Z M105.84,72.24 L142.8,72.24 L142.8,35.28 L105.84,35.28 L105.84,72.24 Z" id="Fill-222"></path>
                <path d="M107.608083,35.1919173 L141.031917,35.1919173 L141.031917,1.76808266 L107.608083,1.76808266 L107.608083,35.1919173 Z M105.84,36.96 L142.8,36.96 L142.8,2.23820962e-13 L105.84,2.23820962e-13 L105.84,36.96 Z" id="Fill-223"></path>
                <path d="M72.3283082,141.031805 L105.751692,141.031805 L105.751692,107.608195 L72.3283082,107.608195 L72.3283082,141.031805 Z M70.56,142.8 L107.52,142.8 L107.52,105.84 L70.56,105.84 L70.56,142.8 Z" id="Fill-224"></path>
                <path d="M37.0481954,141.031805 L70.4718046,141.031805 L70.4718046,107.608195 L37.0481954,107.608195 L37.0481954,141.031805 Z M35.28,142.8 L72.24,142.8 L72.24,105.84 L35.28,105.84 L35.28,142.8 Z" id="Fill-225"></path>
                <path d="M1.76808266,141.031805 L35.1919173,141.031805 L35.1919173,107.608195 L1.76808266,107.608195 L1.76808266,141.031805 Z M-2.53663757e-13,142.8 L36.96,142.8 L36.96,105.84 L-2.53663757e-13,105.84 L-2.53663757e-13,142.8 Z" id="Fill-226"></path>
            </g>
            <g id="Group-2" transform="translate(36.000000, 36.000000)" fill="#10B981">
                <path d="M3.2967892,95.5693985 L93.9384086,95.5693985 L126.258993,127.891911 L36.2631363,127.891911 L3.2967892,95.5693985 Z M2.30806142,93.2613097 L93.261748,93.2613097 L93.261748,2.3080888 L2.30806142,2.3080888 L2.30806142,93.2613097 Z M127.891939,36.2635666 L127.891939,126.260491 L95.5698094,93.9379783 L95.5698094,3.29682832 L127.891939,36.2635666 Z M95.5698094,0 L0,0 L0,95.5693985 L35.3053062,130.2 L130.2,130.2 L130.2,35.3072701 L95.5698094,0 L95.5698094,0 Z" id="Fill-227"></path>
            </g>
            <g id="Group-5" transform="translate(58.400000, 58.400000)" fill="#272C30">
                <path d="M107.608083,141.031805 L141.031917,141.031805 L141.031917,107.608195 L107.608083,107.608195 L107.608083,141.031805 Z M105.84,142.8 L142.8,142.8 L142.8,105.84 L105.84,105.84 L105.84,142.8 Z" id="Fill-217"></path>
                <path d="M72.3283082,105.751917 L105.751692,105.751917 L105.751692,72.3280827 L72.3283082,72.3280827 L72.3283082,105.751917 Z M70.56,107.52 L107.52,107.52 L107.52,70.56 L70.56,70.56 L70.56,107.52 Z" id="Fill-218"></path>
                <path d="M72.3283082,70.4716918 L105.751692,70.4716918 L105.751692,37.0483082 L72.3283082,37.0483082 L72.3283082,70.4716918 Z M70.56,72.24 L107.52,72.24 L107.52,35.28 L70.56,35.28 L70.56,72.24 Z" id="Fill-219"></path>
                <path d="M37.0481954,105.751917 L70.4718046,105.751917 L70.4718046,72.3280827 L37.0481954,72.3280827 L37.0481954,105.751917 Z M35.28,107.52 L72.24,107.52 L72.24,70.56 L35.28,70.56 L35.28,107.52 Z" id="Fill-220"></path>
                <path d="M107.608083,105.751917 L141.031917,105.751917 L141.031917,72.3280827 L107.608083,72.3280827 L107.608083,105.751917 Z M105.84,107.52 L142.8,107.52 L142.8,70.56 L105.84,70.56 L105.84,107.52 Z" id="Fill-221"></path>
                <path d="M107.608083,70.4716918 L141.031917,70.4716918 L141.031917,37.0483082 L107.608083,37.0483082 L107.608083,70.4716918 Z M105.84,72.24 L142.8,72.24 L142.8,35.28 L105.84,35.28 L105.84,72.24 Z" id="Fill-222"></path>
                <path d="M107.608083,35.1919173 L141.031917,35.1919173 L141.031917,1.76808266 L107.608083,1.76808266 L107.608083,35.1919173 Z M105.84,36.96 L142.8,36.96 L142.8,0 L105.84,0 L105.84,36.96 Z" id="Fill-223"></path>
                <path d="M72.3283082,141.031805 L105.751692,141.031805 L105.751692,107.608195 L72.3283082,107.608195 L72.3283082,141.031805 Z M70.56,142.8 L107.52,142.8 L107.52,105.84 L70.56,105.84 L70.56,142.8 Z" id="Fill-224"></path>
                <path d="M37.0481954,141.031805 L70.4718046,141.031805 L70.4718046,107.608195 L37.0481954,107.608195 L37.0481954,141.031805 Z M35.28,142.8 L72.24,142.8 L72.24,105.84 L35.28,105.84 L35.28,142.8 Z" id="Fill-225"></path>
                <path d="M1.76808266,141.031805 L35.1919173,141.031805 L35.1919173,107.608195 L1.76808266,107.608195 L1.76808266,141.031805 Z M0,142.8 L36.96,142.8 L36.96,105.84 L0,105.84 L0,142.8 Z" id="Fill-226"></path>
            </g>
        </g>
    </g>
</svg>