<?xml version="1.0" encoding="UTF-8"?>
<svg width="101px" height="141px" viewBox="0 0 101 141" version="1.1" xmlns="http://www.w3.org/2000/svg" xmlns:xlink="http://www.w3.org/1999/xlink">
    <title>Group 7</title>
    <g id="Page-1" stroke="none" stroke-width="1" fill="none" fill-rule="evenodd">
        <g id="Group-2" fill="#272C30">
            <path d="M2.55741712,114.136016 L72.8708085,114.136016 L97.9428439,139.209547 L28.1303899,139.209547 L2.55741712,114.136016 Z M1.79043167,112.345563 L72.3459028,112.345563 L72.3459028,41.7904529 L1.79043167,41.7904529 L1.79043167,112.345563 Z M99.2095683,68.1307237 L99.2095683,137.944006 L74.1363345,112.870475 L74.1363345,42.5574475 L99.2095683,68.1307237 Z M74.1363345,40 L0,40 L0,114.136016 L27.3873727,141 L101,141 L101,67.3888961 L74.1363345,40 L74.1363345,40 Z" id="Fill-227"></path>
            <path d="M2.55741712,74.1360158 L72.8708085,74.1360158 L97.9428439,99.2095471 L28.1303899,99.2095471 L2.55741712,74.1360158 Z M1.79043167,72.3455628 L72.3459028,72.3455628 L72.3459028,1.79045291 L1.79043167,1.79045291 L1.79043167,72.3455628 Z M99.2095683,28.1307237 L99.2095683,97.9440061 L74.1363345,72.8704747 L74.1363345,2.55744746 L99.2095683,28.1307237 Z M74.1363345,0 L0,0 L0,74.1360158 L27.3873727,101 L101,101 L101,27.3888961 L74.1363345,0 L74.1363345,0 Z" id="Fill-227"></path>
        </g>
    </g>
</svg>