<?xml version="1.0" encoding="UTF-8"?>
<svg width="195px" height="141px" viewBox="0 0 195 141" version="1.1" xmlns="http://www.w3.org/2000/svg" xmlns:xlink="http://www.w3.org/1999/xlink">
    <title>Group 3</title>
    <g id="Page-1" stroke="none" stroke-width="1" fill="none" fill-rule="evenodd">
        <g id="Group-3" fill="#272C30">
            <path d="M40.0000831,139.052649 L124.738402,81.8039016 L191.984017,111.597047 L40.0000831,139.052649 Z M130.372643,13.1962088 L124.106367,80.7790434 L39.7958133,137.738759 L130.372643,13.1962088 Z M192.473063,110.495114 L125.316365,80.7429144 L131.606673,12.9047685 L192.473063,110.495114 Z M195,112.273863 L131.212552,10 L36,141 L195,112.273863 L195,112.273863 Z" id="Fill-59" transform="translate(115.500000, 75.500000) rotate(-180.000000) translate(-115.500000, -75.500000) "></path>
            <path d="M3.19503495,103.439146 L70.8791007,57.5527455 L124.591007,81.4327477 L3.19503495,103.439146 Z M75.3794068,2.56184671 L70.3742679,56.7312943 L3.03187606,102.386028 L75.3794068,2.56184671 Z M124.981629,80.5495187 L71.3407444,56.702336 L76.3650784,2.32824954 L124.981629,80.5495187 Z M127,81.9752337 L76.0502777,0 L0,105 L127,81.9752337 L127,81.9752337 Z" id="Fill-59" transform="translate(63.500000, 52.500000) rotate(-180.000000) translate(-63.500000, -52.500000) "></path>
        </g>
    </g>
</svg>