<?xml version="1.0" encoding="UTF-8"?>
<svg width="128px" height="142px" viewBox="0 0 128 142" version="1.1" xmlns="http://www.w3.org/2000/svg" xmlns:xlink="http://www.w3.org/1999/xlink">
    <title>Group 6</title>
    <g id="Page-1" stroke="none" stroke-width="1" fill="none" fill-rule="evenodd">
        <g id="Group" transform="translate(1.000000, 1.000000)" fill="#272C30">
            <g id="Group-5" transform="translate(51.000000, 51.000000) rotate(-180.000000) translate(-51.000000, -51.000000) ">
                <path d="M76.8629162,100.737003 L100.737084,100.737003 L100.737084,76.8629967 L76.8629162,76.8629967 L76.8629162,100.737003 Z M75.6,102 L102,102 L102,75.6 L75.6,75.6 L75.6,102 Z" id="Fill-217"></path>
                <path d="M51.6630773,75.5370838 L75.5369227,75.5370838 L75.5369227,51.6629162 L51.6630773,51.6629162 L51.6630773,75.5370838 Z M50.4,76.8 L76.8,76.8 L76.8,50.4 L50.4,50.4 L50.4,76.8 Z" id="Fill-218"></path>
                <path d="M51.6630773,50.3369227 L75.5369227,50.3369227 L75.5369227,26.4630773 L51.6630773,26.4630773 L51.6630773,50.3369227 Z M50.4,51.6 L76.8,51.6 L76.8,25.2 L50.4,25.2 L50.4,51.6 Z" id="Fill-219"></path>
                <path d="M26.4629967,75.5370838 L50.3370033,75.5370838 L50.3370033,51.6629162 L26.4629967,51.6629162 L26.4629967,75.5370838 Z M25.2,76.8 L51.6,76.8 L51.6,50.4 L25.2,50.4 L25.2,76.8 Z" id="Fill-220"></path>
                <path d="M76.8629162,75.5370838 L100.737084,75.5370838 L100.737084,51.6629162 L76.8629162,51.6629162 L76.8629162,75.5370838 Z M75.6,76.8 L102,76.8 L102,50.4 L75.6,50.4 L75.6,76.8 Z" id="Fill-221"></path>
                <path d="M76.8629162,50.3369227 L100.737084,50.3369227 L100.737084,26.4630773 L76.8629162,26.4630773 L76.8629162,50.3369227 Z M75.6,51.6 L102,51.6 L102,25.2 L75.6,25.2 L75.6,51.6 Z" id="Fill-222"></path>
                <path d="M76.8629162,25.1370838 L100.737084,25.1370838 L100.737084,1.26291619 L76.8629162,1.26291619 L76.8629162,25.1370838 Z M75.6,26.4 L102,26.4 L102,0 L75.6,0 L75.6,26.4 Z" id="Fill-223"></path>
                <path d="M51.6630773,100.737003 L75.5369227,100.737003 L75.5369227,76.8629967 L51.6630773,76.8629967 L51.6630773,100.737003 Z M50.4,102 L76.8,102 L76.8,75.6 L50.4,75.6 L50.4,102 Z" id="Fill-224"></path>
                <path d="M26.4629967,100.737003 L50.3370033,100.737003 L50.3370033,76.8629967 L26.4629967,76.8629967 L26.4629967,100.737003 Z M25.2,102 L51.6,102 L51.6,75.6 L25.2,75.6 L25.2,102 Z" id="Fill-225"></path>
                <path d="M1.26291619,100.737003 L25.1370838,100.737003 L25.1370838,76.8629967 L1.26291619,76.8629967 L1.26291619,100.737003 Z M0,102 L26.4,102 L26.4,75.6 L0,75.6 L0,102 Z" id="Fill-226"></path>
            </g>
            <g id="Group-5" transform="translate(24.000000, 38.000000)">
                <path d="M76.8629162,100.737003 L100.737084,100.737003 L100.737084,76.8629967 L76.8629162,76.8629967 L76.8629162,100.737003 Z M75.6,102 L102,102 L102,75.6 L75.6,75.6 L75.6,102 Z" id="Fill-217"></path>
                <path d="M51.6630773,75.5370838 L75.5369227,75.5370838 L75.5369227,51.6629162 L51.6630773,51.6629162 L51.6630773,75.5370838 Z M50.4,76.8 L76.8,76.8 L76.8,50.4 L50.4,50.4 L50.4,76.8 Z" id="Fill-218"></path>
                <path d="M51.6630773,50.3369227 L75.5369227,50.3369227 L75.5369227,26.4630773 L51.6630773,26.4630773 L51.6630773,50.3369227 Z M50.4,51.6 L76.8,51.6 L76.8,25.2 L50.4,25.2 L50.4,51.6 Z" id="Fill-219"></path>
                <path d="M26.4629967,75.5370838 L50.3370033,75.5370838 L50.3370033,51.6629162 L26.4629967,51.6629162 L26.4629967,75.5370838 Z M25.2,76.8 L51.6,76.8 L51.6,50.4 L25.2,50.4 L25.2,76.8 Z" id="Fill-220"></path>
                <path d="M76.8629162,75.5370838 L100.737084,75.5370838 L100.737084,51.6629162 L76.8629162,51.6629162 L76.8629162,75.5370838 Z M75.6,76.8 L102,76.8 L102,50.4 L75.6,50.4 L75.6,76.8 Z" id="Fill-221"></path>
                <path d="M76.8629162,50.3369227 L100.737084,50.3369227 L100.737084,26.4630773 L76.8629162,26.4630773 L76.8629162,50.3369227 Z M75.6,51.6 L102,51.6 L102,25.2 L75.6,25.2 L75.6,51.6 Z" id="Fill-222"></path>
                <path d="M76.8629162,25.1370838 L100.737084,25.1370838 L100.737084,1.26291619 L76.8629162,1.26291619 L76.8629162,25.1370838 Z M75.6,26.4 L102,26.4 L102,0 L75.6,0 L75.6,26.4 Z" id="Fill-223"></path>
                <path d="M51.6630773,100.737003 L75.5369227,100.737003 L75.5369227,76.8629967 L51.6630773,76.8629967 L51.6630773,100.737003 Z M50.4,102 L76.8,102 L76.8,75.6 L50.4,75.6 L50.4,102 Z" id="Fill-224"></path>
                <path d="M26.4629967,100.737003 L50.3370033,100.737003 L50.3370033,76.8629967 L26.4629967,76.8629967 L26.4629967,100.737003 Z M25.2,102 L51.6,102 L51.6,75.6 L25.2,75.6 L25.2,102 Z" id="Fill-225"></path>
                <path d="M1.26291619,100.737003 L25.1370838,100.737003 L25.1370838,76.8629967 L1.26291619,76.8629967 L1.26291619,100.737003 Z M0,102 L26.4,102 L26.4,75.6 L0,75.6 L0,102 Z" id="Fill-226"></path>
            </g>
        </g>
    </g>
</svg>